<?xml version="1.0" encoding="UTF-8"?>
<svg width="22px" height="22px" viewBox="0 0 22 22" version="1.1" xmlns="http://www.w3.org/2000/svg" xmlns:xlink="http://www.w3.org/1999/xlink">
    <title>最大化Maximize</title>
    <g id="灵动课堂(特殊版)_美术宝/视频白板切换_大班课" stroke="none" stroke-width="1" fill="none" fill-rule="evenodd">
        <g id="美术宝(大班课_教室内)-视频最大化" transform="translate(-1111.000000, -155.000000)">
            <g id="编组-16" transform="translate(1104.000000, 70.000000)">
                <g id="编组-53" transform="translate(7.000000, 14.000000)">
                    <g id="最大化Maximize" transform="translate(0.000000, 71.000000)">
                        <rect id="矩形" x="0" y="0" width="22" height="22"></rect>
                        <path d="M16,3 C17.1045695,3 18,3.8954305 18,5 L18,10 L18.4,10 C19.2836556,10 20,10.7163444 20,11.6 L20,17.4 C20,18.2836556 19.2836556,19 18.4,19 L10.6,19 C9.7163444,19 9,18.2836556 9,17.4 L9,15 L4,15 C2.8954305,15 2,14.1045695 2,13 L2,5 C2,3.8954305 2.8954305,3 4,3 L16,3 Z M18.4,11.2 L10.6,11.2 C10.4067003,11.2 10.2454251,11.3371128 10.2081266,11.519386 L10.2,11.6 L10.2,17.4 C10.2,17.5932997 10.3371128,17.7545749 10.519386,17.7918734 L10.6,17.8 L18.4,17.8 C18.5932997,17.8 18.7545749,17.6628872 18.7918734,17.480614 L18.8,17.4 L18.8,11.6 C18.8,11.4067003 18.6628872,11.2454251 18.480614,11.2081266 L18.4,11.2 Z M16,4.2 L4,4.2 C3.59215895,4.2 3.25559842,4.50518815 3.20623314,4.8996497 L3.2,5 L3.2,13 C3.2,13.407841 3.50518815,13.7444016 3.8996497,13.7937669 L4,13.8 L9,13.798 L9,11.6 C9,10.7163444 9.7163444,10 10.6,10 L16.798,10 L16.8,5 C16.8,4.59215895 16.4948119,4.25559842 16.1003503,4.20623314 L16,4.2 Z M4.76033014,5.58330723 L8.45159151,6.02169504 C8.52562963,6.03048808 8.57852122,6.097636 8.56972818,6.17167413 C8.56615416,6.20176767 8.55255861,6.22978344 8.53112972,6.25121233 L7.29850212,7.48368333 L9.06647092,9.25140504 C9.26173306,9.44666719 9.26173306,9.76324968 9.06647092,9.95851182 C8.87120877,10.153774 8.55462628,10.153774 8.35936414,9.95851182 L6.59139534,8.19079011 L5.35120835,9.43113371 C5.29848757,9.48385449 5.2130103,9.48385449 5.16028952,9.43113371 C5.13958574,9.41042993 5.12617422,9.3835563 5.12207714,9.35456481 L4.61073713,5.73625563 C4.60030419,5.66243073 4.65169352,5.59412626 4.72551841,5.58369332 C4.73705702,5.58206268 4.7487582,5.5819329 4.76033014,5.58330723 Z" id="形状结合" fill="#7B88A0" fill-rule="nonzero"></path>
                    </g>
                </g>
            </g>
        </g>
    </g>
</svg>