<?xml version="1.0" encoding="UTF-8"?>
<svg width="22px" height="22px" viewBox="0 0 22 22" version="1.1" xmlns="http://www.w3.org/2000/svg" xmlns:xlink="http://www.w3.org/1999/xlink">
    <title>还原Restore</title>
    <g id="灵动课堂(特殊版)_美术宝/视频白板切换_大班课" stroke="none" stroke-width="1" fill="none" fill-rule="evenodd">
        <g id="美术宝(大班课_教室内)-视频还原" transform="translate(-1111.000000, -155.000000)">
            <g id="编组-16" transform="translate(1104.000000, 70.000000)">
                <g id="编组-53" transform="translate(7.000000, 14.000000)">
                    <g id="还原Restore" transform="translate(0.000000, 71.000000)">
                        <rect id="矩形" x="0" y="0" width="22" height="22"></rect>
                        <path d="M16,3 C17.1045695,3 18,3.8954305 18,5 L18,10 L18.4,10 C19.2836556,10 20,10.7163444 20,11.6 L20,17.4 C20,18.2836556 19.2836556,19 18.4,19 L10.6,19 C9.7163444,19 9,18.2836556 9,17.4 L9,15 L4,15 C2.8954305,15 2,14.1045695 2,13 L2,5 C2,3.8954305 2.8954305,3 4,3 L16,3 Z M18.4,11.2 L10.6,11.2 C10.4067003,11.2 10.2454251,11.3371128 10.2081266,11.519386 L10.2,11.6 L10.2,17.4 C10.2,17.5932997 10.3371128,17.7545749 10.519386,17.7918734 L10.6,17.8 L18.4,17.8 C18.5932997,17.8 18.7545749,17.6628872 18.7918734,17.480614 L18.8,17.4 L18.8,11.6 C18.8,11.4067003 18.6628872,11.2454251 18.480614,11.2081266 L18.4,11.2 Z M16,4.2 L4,4.2 C3.59215895,4.2 3.25559842,4.50518815 3.20623314,4.8996497 L3.2,5 L3.2,13 C3.2,13.407841 3.50518815,13.7444016 3.8996497,13.7937669 L4,13.8 L9,13.798 L9,11.6 C9,10.7163444 9.7163444,10 10.6,10 L16.798,10 L16.8,5 C16.8,4.59215895 16.4948119,4.25559842 16.1003503,4.20623314 L16,4.2 Z M5.38854933,5.58940164 L7.15651812,7.35712335 L8.39670512,6.11677976 C8.4494259,6.06405898 8.53490317,6.06405898 8.58762395,6.11677976 C8.60832773,6.13748354 8.62173924,6.16435716 8.62583633,6.19334866 L9.13717633,9.81165784 C9.14760928,9.88548273 9.09621995,9.9537872 9.02239506,9.96422015 C9.01085645,9.96585079 8.99915527,9.96598056 8.98758333,9.96460624 L5.29632195,9.52621843 C5.22228383,9.51742539 5.16939224,9.45027746 5.17818528,9.37623934 C5.1817593,9.3461458 5.19535485,9.31813002 5.21678375,9.29670113 L6.44941134,8.06423013 L4.68144255,6.29650842 C4.4861804,6.10124628 4.4861804,5.78466379 4.68144255,5.58940164 C4.87670469,5.3941395 5.19328718,5.3941395 5.38854933,5.58940164 Z" id="形状结合" fill="#357BF6" fill-rule="nonzero"></path>
                    </g>
                </g>
            </g>
        </g>
    </g>
</svg>