<?xml version="1.0" standalone="no"?><!DOCTYPE svg PUBLIC "-//W3C//DTD SVG 1.1//EN" "http://www.w3.org/Graphics/SVG/1.1/DTD/svg11.dtd"><svg t="1623155724542" class="icon" viewBox="0 0 1024 1024" version="1.1" xmlns="http://www.w3.org/2000/svg" p-id="3730" xmlns:xlink="http://www.w3.org/1999/xlink" width="22" height="22"><defs><style type="text/css"></style></defs><path d="M689.803636 845.730909c12.474182 0 24.017455 5.306182 30.254546 13.963636a23.179636 23.179636 0 0 1 0 27.927273c-6.237091 8.657455-17.780364 13.963636-30.254546 13.963637H201.076364c-19.269818 0-34.909091-12.474182-34.909091-27.927273 0-15.406545 15.639273-27.927273 34.909091-27.927273h488.727272zM445.44 93.090909c16.290909 0 31.744 6.516364 43.240727 17.873455l4.654546 5.213091 141.498182 175.522909 112.826181-77.730909a60.974545 60.974545 0 0 1 57.902546-6.283637l6.144 2.978909 5.911273 3.677091c18.944 13.312 28.858182 36.072727 26.391272 58.786909l-0.977454 6.190546-88.715637 441.623272a62.464 62.464 0 0 1-54.458181 49.57091l-6.144 0.279272H197.306182a62.091636 62.091636 0 0 1-59.112727-44.032l-1.675637-6.144L47.941818 279.505455a63.767273 63.767273 0 0 1 25.413818-65.163637 60.974545 60.974545 0 0 1 64.046546-4.002909l5.911273 3.630546 112.779636 77.730909 141.498182-175.616c8.843636-10.891636 20.945455-18.385455 34.257454-21.410909l6.749091-1.210182L445.44 93.090909z m0 53.061818a8.145455 8.145455 0 0 0-4.654545 1.536l-1.908364 1.768728-172.357818 213.922909-153.320728-105.658182a8.005818 8.005818 0 0 0-9.402181 0.046545 10.426182 10.426182 0 0 0-4.142546 8.424728l0.279273 2.699636L188.509091 709.818182a9.774545 9.774545 0 0 0 6.376727 7.540363l2.327273 0.372364h496.593454c3.072 0 6.050909-1.954909 7.633455-5.073454l0.884364-2.513455 88.715636-441.483636a10.705455 10.705455 0 0 0-4.002909-10.938182 7.959273 7.959273 0 0 0-7.028364-1.163637l-2.280727 1.117091-153.320727 105.704728-172.357818-213.876364a8.517818 8.517818 0 0 0-6.609455-3.351273z m0 235.52a119.621818 119.621818 0 1 1 0 239.243637 119.621818 119.621818 0 0 1 0-239.243637z m0 53.061818a66.56 66.56 0 1 0 0 133.12 66.56 66.56 0 0 0 0-133.12z" fill="#0073FF" p-id="3731"></path><path d="M724.712727 724.712727m-232.727272 0a232.727273 232.727273 0 1 0 465.454545 0 232.727273 232.727273 0 1 0-465.454545 0Z" fill="#0073FF" p-id="3732"></path><path d="M818.874182 628.689455a27.927273 27.927273 0 0 1 46.871273 29.975272l-2.46691 3.816728-141.684363 186.181818a27.927273 27.927273 0 0 1-41.053091 3.723636l-3.304727-3.584L586.193455 730.298182a27.927273 27.927273 0 0 1 41.239272-37.376l3.072 3.351273L699.252364 785.687273l119.621818-157.044364z" fill="#FFFFFF" p-id="3733"></path></svg>